HIERARCHY
ROOT Hips
{
	OFFSET 0.00000 0.00000 0.00000
	CHANNELS 6 Xposition Yposition Zposition Zrotation Yrotation Xrotation 
	JOINT LHipJoint
	{
		OFFSET 0 0 0
		CHANNELS 3 Zrotation Yrotation Xrotation
		JOINT LeftUpLeg
		{
			OFFSET 1.64549 -1.70879 0.84566
			CHANNELS 3 Zrotation Yrotation Xrotation
			JOINT LeftLeg
			{
				OFFSET 2.24963 -6.18082 0.00000
				CHANNELS 3 Zrotation Yrotation Xrotation
				JOINT LeftFoot
				{
					OFFSET 2.71775 -7.46697 0.00000
					CHANNELS 3 Zrotation Yrotation Xrotation
					JOINT LeftToeBase
					{
						OFFSET 0.18768 -0.51564 2.24737
						CHANNELS 3 Zrotation Yrotation Xrotation
						End Site
						{
							OFFSET 0.00000 -0.00000 1.15935
						}
					}
				}
			}
		}
	}
	JOINT RHipJoint
	{
		OFFSET 0 0 0
		CHANNELS 3 Zrotation Yrotation Xrotation
		JOINT RightUpLeg
		{
			OFFSET -1.58830 -1.70879 0.84566
			CHANNELS 3 Zrotation Yrotation Xrotation
			JOINT RightLeg
			{
				OFFSET -2.25006 -6.18201 0.00000
				CHANNELS 3 Zrotation Yrotation Xrotation
				JOINT RightFoot
				{
					OFFSET -2.72829 -7.49593 0.00000
					CHANNELS 3 Zrotation Yrotation Xrotation
					JOINT RightToeBase
					{
						OFFSET -0.21541 -0.59185 2.10643
						CHANNELS 3 Zrotation Yrotation Xrotation
						End Site
						{
							OFFSET -0.00000 -0.00000 1.09838
						}
					}
				}
			}
		}
	}
	JOINT LowerBack
	{
		OFFSET 0 0 0
		CHANNELS 3 Zrotation Yrotation Xrotation
		JOINT Spine
		{
			OFFSET 0.03142 2.10496 -0.11038
			CHANNELS 3 Zrotation Yrotation Xrotation
			JOINT Spine1
			{
				OFFSET -0.01863 2.10897 -0.06956
				CHANNELS 3 Zrotation Yrotation Xrotation
				JOINT Neck
				{
					OFFSET 0 0 0
					CHANNELS 3 Zrotation Yrotation Xrotation
					JOINT Neck1
					{
						OFFSET -0.02267 1.73238 0.00451
						CHANNELS 3 Zrotation Yrotation Xrotation
						JOINT Head
						{
							OFFSET -0.05808 1.54724 -0.61749
							CHANNELS 3 Zrotation Yrotation Xrotation
							End Site
							{
								OFFSET -0.01396 1.71468 -0.21082
							}
						}
					}
				}
				JOINT LeftShoulder
				{
					OFFSET 0 0 0
					CHANNELS 3 Zrotation Yrotation Xrotation
					JOINT LeftArm
					{
						OFFSET 3.44898 0.50298 0.21920
						CHANNELS 3 Zrotation Yrotation Xrotation
						JOINT LeftForeArm
						{
							OFFSET 5.41917 -0.00000 -0.00000
							CHANNELS 3 Zrotation Yrotation Xrotation
							JOINT LeftHand
							{
								OFFSET 2.44373 -0.00000 0.00000
								CHANNELS 3 Zrotation Yrotation Xrotation
								JOINT LeftFingerBase
								{
									OFFSET 0 0 0
									CHANNELS 3 Zrotation Yrotation Xrotation
									JOINT LeftHandIndex1
									{
										OFFSET 0.72750 -0.00000 0.00000
										CHANNELS 3 Zrotation Yrotation Xrotation
										End Site
										{
											OFFSET 0.58653 -0.00000 0.00000
										}
									}
								}
								JOINT LThumb
								{
									OFFSET 0 0 0
									CHANNELS 3 Zrotation Yrotation Xrotation
									End Site
									{
										OFFSET 0.59549 -0.00000 0.59549
									}
								}
							}
						}
					}
				}
				JOINT RightShoulder
				{
					OFFSET 0 0 0
					CHANNELS 3 Zrotation Yrotation Xrotation
					JOINT RightArm
					{
						OFFSET -3.23015 0.55830 0.31051
						CHANNELS 3 Zrotation Yrotation Xrotation
						JOINT RightForeArm
						{
							OFFSET -5.58976 -0.00010 0.00014
							CHANNELS 3 Zrotation Yrotation Xrotation
							JOINT RightHand
							{
								OFFSET -2.48060 -0.00000 0.00000
								CHANNELS 3 Zrotation Yrotation Xrotation
								JOINT RightFingerBase
								{
									OFFSET 0 0 0
									CHANNELS 3 Zrotation Yrotation Xrotation
									JOINT RightHandIndex1
									{
										OFFSET -0.81601 -0.00000 0.00000
										CHANNELS 3 Zrotation Yrotation Xrotation
										End Site
										{
											OFFSET -0.65789 -0.00000 0.00000
										}
									}
								}
								JOINT RThumb
								{
									OFFSET 0 0 0
									CHANNELS 3 Zrotation Yrotation Xrotation
									End Site
									{
										OFFSET -0.66793 -0.00000 0.66793
									}
								}
							}
						}
					}
				}
			}
		}
	}
}
MOTION
Frames: 5
Frame Time: 0.0212766
0.00 0.00 0.00 -5.1526 11.2994 15.8311 0.0000 0.0000 0.0000 -36.0682 12.5746 -46.9611 12.9378 18.7596 68.9322 1.1101 14.7787 -30.0863 4.5044 -12.8029 -38.6352 0.0000 0.0000 0.0000 34.5553 7.0319 -54.3095 -9.1401 -16.8970 56.5734 -1.7289 -18.6292 -37.2792 -0.2941 -3.4874 9.6387 5.2449 -0.0665 8.3425 9.0829 1.3757 -4.1425 6.6547 0.7083 -9.3116 -5.2192 -1.5835 2.1555 5.2923 -2.2644 1.9489 2.5838 -1.1582 0.3695 -0.0000 0.0000 0.0000 -90.7278 -69.5755 117.9931 118.6599 -56.6566 -84.5416 -0.0000 -0.0000 50.4290 -3.1954 2.8053 -0.1565 -7.1250 0.0000 -0.0000 -23.5794 32.0747 8.0687 -0.0000 0.0000 0.0000 92.4826 45.5103 107.9562 -64.1209 57.3116 -37.7904 0.0000 0.0000 22.7114 -5.9599 9.6882 -1.0065 7.1250 -0.0000 -0.0000 14.9164 -20.3786 9.0977
0.00 0.00 0.00 -5.1588 14.1247 15.3526 0.0000 0.0000 0.0000 -35.4140 13.4074 -45.3457 12.2843 18.5083 66.8872 1.4742 13.0210 -30.8795 3.3700 -11.2713 -33.2003 0.0000 0.0000 0.0000 35.5156 5.4073 -53.2515 -8.6484 -16.5761 54.8662 -1.9556 -18.8043 -38.5731 -0.4431 -4.2708 11.8399 6.1754 0.8547 8.6889 8.4934 2.8478 -5.0538 5.2655 1.3406 -10.5775 -5.5772 -3.0188 4.2391 6.6201 -4.2682 1.4551 3.1427 -2.1919 0.0066 0.0000 0.0000 0.0000 -59.7360 -66.6578 93.5304 128.6550 -53.5238 -92.7480 -0.0000 -0.0000 45.2923 15.2814 8.5504 2.3262 -7.1250 0.0000 -0.0000 -10.0043 38.6556 1.5821 0.0000 0.0000 0.0000 79.0365 44.6260 100.9739 -83.5735 59.8434 -54.4374 0.0000 0.0000 23.6898 -9.8828 10.9946 -1.9030 7.1250 -0.0000 -0.0000 12.0929 -18.9536 7.6818
0.00 0.00 0.00 -4.2639 20.1846 16.9028 0.0000 0.0000 0.0000 -34.4110 10.1933 -42.1598 10.3632 17.6091 60.6955 1.2464 13.0879 -29.4476 1.8449 -8.5354 -24.3523 0.0000 0.0000 0.0000 35.6634 4.3388 -52.2320 -7.0420 -15.3672 49.0331 -1.9027 -20.3048 -39.6752 -0.9320 -6.1497 17.2195 5.2220 1.8676 6.3055 9.1374 3.8921 -4.8065 6.3555 1.9737 -9.0495 -7.0772 -5.5437 2.5996 8.0077 -7.5421 -0.3757 3.8743 -3.8149 0.0497 0.0000 0.0000 0.0000 -24.4601 -54.8524 65.3784 134.2173 -51.1462 -97.1534 -0.0000 -0.0000 45.2746 31.0357 7.2140 4.3211 -7.1250 0.0000 -0.0000 3.6556 38.3595 -0.5988 0.0000 0.0000 0.0000 55.5820 40.0951 88.1685 -104.5325 59.1868 -72.5511 0.0000 0.0000 15.9770 -24.3391 22.2198 -9.7069 7.1250 -0.0000 -0.0000 2.8386 -5.8561 2.5373
0.00 0.00 0.00 1.0801 36.2733 24.0543 0.0000 0.0000 0.0000 -31.8902 -1.0482 -30.7647 5.3229 13.7384 42.1995 -0.2833 14.2199 -16.5874 3.6218 -11.6394 -34.4678 0.0000 0.0000 0.0000 26.4504 9.8721 -45.9625 -3.9376 -12.0769 36.0047 0.3916 -26.2297 -34.6368 -0.5438 -4.7247 13.1250 3.0743 2.1646 4.0262 8.2168 4.3448 -8.7151 6.6584 2.4288 -12.2251 -8.5712 -11.1147 -2.4834 11.0908 -15.0573 3.9486 4.0080 -7.3421 3.0741 -0.0000 -0.0000 0.0000 -11.0169 -18.3820 55.2873 132.0778 -52.1223 -95.4757 -0.0000 -0.0000 47.9882 37.8400 1.0142 0.7877 -7.1250 0.0000 -0.0000 8.9743 31.1883 -3.0631 -0.0000 -0.0000 0.0000 32.8504 10.6424 75.2007 -98.7226 59.7105 -67.5466 0.0000 0.0000 25.9574 -43.6844 40.8425 -31.9897 7.1250 -0.0000 -0.0000 -3.5856 20.0248 -4.6037
0.00 0.00 0.00 5.0101 46.3143 30.0810 0.0000 0.0000 0.0000 -30.2067 -6.7746 -26.3796 2.9809 10.6640 31.1549 -0.7033 14.7351 -3.8829 3.9060 -12.0343 -35.8533 0.0000 0.0000 0.0000 16.9943 16.9164 -42.4229 -2.9720 -10.6495 31.1068 1.7813 -28.3575 -29.0908 -0.3663 -3.8879 10.7616 1.8686 1.4614 2.3776 9.2417 3.6404 -10.7292 8.7709 2.4404 -13.7359 -9.7164 -13.3115 -4.0336 10.8054 -17.7659 2.9881 3.7761 -8.6696 3.3705 0.0000 0.0000 0.0000 -12.0558 3.1806 50.8916 126.6152 -54.2726 -91.0998 -0.0000 -0.0000 47.6340 41.3707 -2.8730 -2.5275 -7.1250 0.0000 -0.0000 11.1608 26.1241 -5.1996 0.0000 0.0000 0.0000 23.9132 -1.4055 68.1368 -80.9879 59.6909 -52.2034 0.0000 0.0000 19.0006 -47.4130 44.5591 -37.3574 7.1250 -0.0000 -0.0000 -3.8363 25.4248 -5.1197
